<?xml version="1.0" encoding="utf-8"?>
<!-- Generator: Adobe Illustrator 24.0.0, SVG Export Plug-In . SVG Version: 6.00 Build 0)  -->
<svg version="1.1" xmlns="http://www.w3.org/2000/svg" xmlns:xlink="http://www.w3.org/1999/xlink" x="0px" y="0px"
	 viewBox="0 0 64 64" enable-background="new 0 0 64 64" xml:space="preserve">
<g id="Captions">
</g>
<g id="Icons">
	<g>
		<g>
			<g>
				<path fill="#D2AA82" d="M16,52L16,52c-1.105,0-2-0.895-2-2v-3h4v3C18,51.105,17.105,52,16,52z"/>
			</g>
			<g>
				<path fill="#0A5078" d="M18,38h-4c-1.105,0-2,0.895-2,2v5c0,1.657,1.343,3,3,3h2c1.657,0,3-1.343,3-3v-5
					C20,38.895,19.105,38,18,38z"/>
			</g>
			<g>
				<path fill="#FAB400" d="M24,60H8v-7c0-1.657,1.343-3,3-3h10c1.657,0,3,1.343,3,3V60z"/>
			</g>
		</g>
		<g>
			<g>
				<path fill="#D2AA82" d="M32,52L32,52c-1.105,0-2-0.895-2-2v-3h4v3C34,51.105,33.105,52,32,52z"/>
			</g>
			<g>
				<path fill="#C80A50" d="M34,38h-4c-1.105,0-2,0.895-2,2v5c0,1.657,1.343,3,3,3h2c1.657,0,3-1.343,3-3v-5
					C36,38.895,35.105,38,34,38z"/>
			</g>
			<g>
				<path fill="#00A0C8" d="M40,60H24v-7c0-1.657,1.343-3,3-3h10c1.657,0,3,1.343,3,3V60z"/>
			</g>
			<g>
				<path fill="#0A5078" d="M40,60H24v-7c0-1.657,1.343-3,3-3h10c1.657,0,3,1.343,3,3V60z"/>
			</g>
			<g>
				<path fill="#00325A" d="M24.5,51.342C24.184,51.817,24,52.387,24,53v7h1v-7C25,52.387,24.816,51.817,24.5,51.342z"/>
			</g>
		</g>
		<g>
			<g>
				<path fill="#D2AA82" d="M48,52L48,52c-1.105,0-2-0.895-2-2v-3h4v3C50,51.105,49.105,52,48,52z"/>
			</g>
			<g>
				<path fill="#DC9600" d="M50,38h-4c-1.105,0-2,0.895-2,2v5c0,1.657,1.343,3,3,3h2c1.657,0,3-1.343,3-3v-5
					C52,38.895,51.105,38,50,38z"/>
			</g>
			<g>
				<path fill="#00A0C8" d="M56,60H40v-7c0-1.657,1.343-3,3-3h10c1.657,0,3,1.343,3,3V60z"/>
			</g>
			<g>
				<path fill="#0082AA" d="M40.5,51.342C40.184,51.817,40,52.387,40,53v7h1v-7C41,52.387,40.816,51.817,40.5,51.342z"/>
			</g>
		</g>
		<g>
			<path fill="#00A0C8" d="M58,36H6c-1.105,0-2-0.895-2-2V6c0-1.105,0.895-2,2-2h52c1.105,0,2,0.895,2,2v28
				C60,35.105,59.105,36,58,36z"/>
		</g>
		<g>
			<path fill="#0082AA" d="M30,12h-1v-1c0-0.552-0.448-1-1-1v15.874c1.725-0.444,3-2.01,3-3.874v-9C31,12.448,30.552,12,30,12z"/>
		</g>
		<g>
			<path fill="#C80A50" d="M26,16v6h-6v4h6c2.209,0,4-1.791,4-4v-6H26z"/>
		</g>
		<g>
			<path fill="#F0C8A0" d="M29,12h-1v-1c0-0.552-0.448-1-1-1s-1,0.448-1,1v5h4v-3C30,12.448,29.552,12,29,12z"/>
		</g>
		<g>
			<g>
				<path fill="#C80A50" d="M17,8h-2c-2.761,0-5,2.239-5,5v10c0,0.552,0.448,1,1,1h10c0.552,0,1-0.448,1-1V13
					C22,10.239,19.761,8,17,8z"/>
			</g>
			<g>
				<path fill="#C80A50" d="M22,36H8V26c0-2.209,1.791-4,4-4h10V36z"/>
			</g>
			<g>
				<path fill="#00A0C8" d="M12,22c0,2.209,1.791,4,4,4s4-1.791,4-4H12z"/>
			</g>
			<g>
				<path fill="#D2AA82" d="M16,24L16,24c-1.105,0-2-0.895-2-2v-3h4v3C18,23.105,17.105,24,16,24z"/>
			</g>
			<g>
				<path fill="#F0C8A0" d="M17,20h-2c-1.657,0-3-1.343-3-3v-3c0-1.105,0.895-2,2-2h1v0c0,1.105,0.895,2,2,2h3v3
					C20,18.657,18.657,20,17,20z"/>
			</g>
		</g>
		<g>
			<rect x="12" y="28" fill="#A00028" width="1" height="8"/>
		</g>
		<g>
			<path fill="#0082AA" d="M53,19h-0.514c-0.439,0-0.806-0.292-0.955-0.705c-0.087-0.241-0.184-0.476-0.293-0.705
				c-0.188-0.397-0.134-0.865,0.176-1.175l0.364-0.364c0.391-0.391,0.391-1.024,0-1.414l-1.414-1.414
				c-0.391-0.391-1.024-0.391-1.414,0l-0.364,0.364c-0.311,0.311-0.778,0.364-1.175,0.176c-0.229-0.108-0.465-0.206-0.705-0.293
				C46.292,13.321,46,12.953,46,12.514V12c0-0.552-0.448-1-1-1h-2c-0.552,0-1,0.448-1,1v0.514c0,0.439-0.292,0.806-0.705,0.955
				c-0.241,0.087-0.476,0.184-0.705,0.293c-0.397,0.188-0.865,0.134-1.175-0.176l-0.364-0.364c-0.391-0.391-1.024-0.391-1.414,0
				l-1.414,1.414c-0.391,0.391-0.391,1.024,0,1.414l0.364,0.364c0.311,0.311,0.364,0.778,0.176,1.175
				c-0.108,0.229-0.206,0.465-0.293,0.705C36.321,18.708,35.953,19,35.514,19H35c-0.552,0-1,0.448-1,1v2c0,0.552,0.448,1,1,1h0.514
				c0.439,0,0.806,0.292,0.955,0.705c0.087,0.241,0.184,0.476,0.293,0.705c0.188,0.397,0.134,0.865-0.176,1.175l-0.364,0.364
				c-0.391,0.391-0.391,1.024,0,1.414l1.414,1.414c0.391,0.391,1.024,0.391,1.414,0l0.364-0.364
				c0.311-0.311,0.778-0.364,1.175-0.176c0.229,0.108,0.465,0.206,0.705,0.293C41.708,28.679,42,29.047,42,29.486V30
				c0,0.552,0.448,1,1,1h2c0.552,0,1-0.448,1-1v-0.514c0-0.439,0.292-0.806,0.705-0.955c0.241-0.087,0.476-0.184,0.705-0.293
				c0.397-0.188,0.865-0.134,1.175,0.176l0.364,0.364c0.391,0.391,1.024,0.391,1.414,0l1.414-1.414c0.391-0.391,0.391-1.024,0-1.414
				l-0.364-0.364c-0.311-0.311-0.364-0.778-0.176-1.175c0.108-0.229,0.206-0.465,0.293-0.705C51.679,23.292,52.047,23,52.486,23H53
				c0.552,0,1-0.448,1-1v-2C54,19.448,53.552,19,53,19z M44,25c-2.209,0-4-1.791-4-4c0-2.209,1.791-4,4-4s4,1.791,4,4
				C48,23.209,46.209,25,44,25z"/>
		</g>
		<g>
			<path fill="#F0F0F0" d="M53,18h-0.514c-0.439,0-0.806-0.292-0.955-0.705c-0.087-0.241-0.184-0.476-0.293-0.705
				c-0.188-0.397-0.134-0.865,0.176-1.175l0.364-0.364c0.391-0.391,0.391-1.024,0-1.414l-1.414-1.414
				c-0.391-0.391-1.024-0.391-1.414,0l-0.364,0.364c-0.311,0.311-0.778,0.364-1.175,0.176c-0.229-0.108-0.465-0.206-0.705-0.293
				C46.292,12.321,46,11.953,46,11.514V11c0-0.552-0.448-1-1-1h-2c-0.552,0-1,0.448-1,1v0.514c0,0.439-0.292,0.806-0.705,0.955
				c-0.241,0.087-0.476,0.184-0.705,0.293c-0.397,0.188-0.865,0.134-1.175-0.176l-0.364-0.364c-0.391-0.391-1.024-0.391-1.414,0
				l-1.414,1.414c-0.391,0.391-0.391,1.024,0,1.414l0.364,0.364c0.311,0.311,0.364,0.778,0.176,1.175
				c-0.108,0.229-0.206,0.465-0.293,0.705C36.321,17.708,35.953,18,35.514,18H35c-0.552,0-1,0.448-1,1v2c0,0.552,0.448,1,1,1h0.514
				c0.439,0,0.806,0.292,0.955,0.705c0.087,0.241,0.184,0.476,0.293,0.705c0.188,0.397,0.134,0.865-0.176,1.175l-0.364,0.364
				c-0.391,0.391-0.391,1.024,0,1.414l1.414,1.414c0.391,0.391,1.024,0.391,1.414,0l0.364-0.364
				c0.311-0.311,0.778-0.364,1.175-0.176c0.229,0.108,0.465,0.206,0.705,0.293C41.708,27.679,42,28.047,42,28.486V29
				c0,0.552,0.448,1,1,1h2c0.552,0,1-0.448,1-1v-0.514c0-0.439,0.292-0.806,0.705-0.955c0.241-0.087,0.476-0.184,0.705-0.293
				c0.397-0.188,0.865-0.134,1.175,0.176l0.364,0.364c0.391,0.391,1.024,0.391,1.414,0l1.414-1.414c0.391-0.391,0.391-1.024,0-1.414
				l-0.364-0.364c-0.311-0.311-0.364-0.778-0.176-1.175c0.108-0.229,0.206-0.465,0.293-0.705C51.679,22.292,52.047,22,52.486,22H53
				c0.552,0,1-0.448,1-1v-2C54,18.448,53.552,18,53,18z M44,24c-2.209,0-4-1.791-4-4c0-2.209,1.791-4,4-4s4,1.791,4,4
				C48,22.209,46.209,24,44,24z"/>
		</g>
	</g>
</g>
</svg>
